<svg width="38" height="38" viewBox="0 0 38 38" fill="none" xmlns="http://www.w3.org/2000/svg">
<rect width="38" height="38" rx="19" fill="#B2D6C2"/>
<g clip-path="url(#clip0_608_4450)">
<path d="M18.7992 8.49968C18.8897 8.49876 18.9802 8.49884 19.0708 8.49971C19.0989 8.49997 19.1271 8.5002 19.1553 8.50042C19.8437 8.5063 20.5319 8.53297 25.4292 9.1943C25.4348 9.19553 25.4405 9.19677 25.4463 9.19804C26.1548 9.35298 26.8575 9.53521 28.5211 10.0522C28.5266 10.0541 28.5322 10.056 28.5379 10.0579C28.6925 10.1097 28.8465 10.163 29 10.218C28.9354 10.8543 28.8395 11.486 28.722 12.1142C28.72 12.1246 28.7181 12.135 28.7161 12.1458C28.6369 12.5704 28.5448 12.9921 28.4526 13.4139C28.3906 13.4012 28.3312 13.3829 28.271 13.3628C28.2535 13.357 28.2359 13.3512 28.2183 13.3454C28.1929 13.337 28.1676 13.3286 28.1422 13.3202C27.3711 13.0652 26.5907 12.8378 23.2485 12.1587C23.2424 12.1578 23.2364 12.1569 23.2301 12.156C22.5535 12.0561 21.8731 11.9812 20.0426 11.8649C20.0362 11.8647 20.0299 11.8645 20.0234 11.8642C19.258 11.8364 18.4918 11.8389 12.7668 12.4874C12.7502 12.4909 12.7335 12.4943 12.7168 12.4978C12.7019 12.501 12.7019 12.501 12.6867 12.5042C12.6779 12.506 12.6692 12.5078 12.6601 12.5097C12.6407 12.5128 12.6407 12.5128 12.6316 12.5237C12.6346 12.5414 12.6346 12.5414 12.6404 12.5627C12.6426 12.5711 12.6447 12.5795 12.647 12.5882C12.6494 12.5975 12.6519 12.6068 12.6544 12.6164C12.6569 12.6261 12.6594 12.6358 12.662 12.6458C12.6705 12.6782 12.679 12.7105 12.6876 12.7429C12.6905 12.754 12.6934 12.7652 12.6964 12.7767C12.8482 13.3536 13.0208 13.9242 13.205 14.491C13.2079 14.4997 13.2107 14.5084 13.2136 14.5173C13.4069 15.1127 13.6237 15.7001 13.8566 16.2804C13.8596 16.2877 13.8625 16.295 13.8656 16.3026C14.0564 16.7785 14.2601 17.249 14.4735 17.7147C14.476 17.7202 14.4785 17.7256 14.4811 17.7313C14.5909 17.9711 14.7056 18.2085 14.8214 18.4454C14.8384 18.4804 14.8555 18.5153 14.8725 18.5503C14.938 18.6846 15.0034 18.8188 15.0725 18.9512C15.0849 18.975 15.0972 18.9989 15.1094 19.0228C15.1242 19.0516 15.139 19.0803 15.1539 19.109C15.157 19.115 15.1601 19.1211 15.1634 19.1273C15.2088 19.215 15.2554 19.3019 15.3035 19.3881C15.3322 19.4396 15.3597 19.4915 15.3863 19.5441C15.4282 19.6267 15.4731 19.7074 15.5186 19.788C15.5376 19.8219 15.5565 19.8558 15.5754 19.8898C15.7317 20.1709 15.8903 20.4508 16.0576 20.7252C16.0799 20.762 16.102 20.799 16.1241 20.8359C16.1828 20.9339 16.2419 21.0315 16.3021 21.1284C16.3164 21.1514 16.3306 21.1744 16.3449 21.1975C16.3551 21.214 16.3654 21.2306 16.3757 21.2472C16.3801 21.2544 16.3846 21.2616 16.3891 21.269C16.4781 21.4123 16.5693 21.5542 16.6604 21.6961C16.6711 21.7129 16.6819 21.7296 16.6926 21.7464C16.7584 21.8492 16.8256 21.9507 16.8952 22.0509C16.9208 22.0878 16.9455 22.1254 16.9702 22.163C17.055 22.2907 17.1412 22.4173 17.2298 22.5423C17.2611 22.5866 17.292 22.6312 17.3227 22.6759C17.3744 22.7515 17.4278 22.8257 17.4815 22.8999C17.5019 22.9281 17.5223 22.9565 17.5426 22.9848C17.5527 22.9988 17.5628 23.0129 17.573 23.027C17.5984 23.0623 17.6237 23.0976 17.649 23.133C17.7087 23.2167 17.7697 23.2991 17.832 23.3807C17.8611 23.4187 17.8898 23.4571 17.9183 23.4955C17.9772 23.5745 18.0367 23.653 18.0964 23.7314C18.1007 23.737 18.1049 23.7425 18.1093 23.7483C18.1597 23.8146 18.211 23.8802 18.2629 23.9453C18.2937 23.984 18.3239 24.0231 18.3538 24.0624C18.3889 24.1085 18.4251 24.1533 18.4621 24.1978C18.4855 24.2259 18.5084 24.2543 18.5308 24.2833C18.5615 24.323 18.5933 24.3616 18.6252 24.4001C18.6504 24.4304 18.6752 24.461 18.6997 24.492C18.7341 24.5352 18.7694 24.5776 18.805 24.6198C18.8319 24.6519 18.8583 24.6844 18.8843 24.7173C18.9213 24.764 18.9603 24.8087 19 24.8531C19.0666 24.7855 19.1281 24.7142 19.187 24.6395C19.2124 24.6078 19.2386 24.5769 19.265 24.5459C19.3109 24.4919 19.3557 24.437 19.3997 24.3812C19.4118 24.366 19.4239 24.3508 19.436 24.3356C19.4425 24.3276 19.4489 24.3195 19.4555 24.3112C19.4724 24.2901 19.4894 24.269 19.5065 24.2479C19.558 24.1841 19.609 24.12 19.6587 24.0546C19.6905 24.0128 19.7234 23.972 19.7564 23.9311C19.8028 23.8737 19.8477 23.8155 19.8918 23.7561C19.9151 23.7249 19.9387 23.6939 19.9622 23.663C19.9673 23.6562 19.9725 23.6494 19.9778 23.6424C20.0039 23.608 20.0301 23.5736 20.0563 23.5392C20.1083 23.471 20.1599 23.4025 20.2104 23.3331C20.2411 23.2909 20.2722 23.249 20.3035 23.2072C20.3515 23.1429 20.3991 23.0786 20.4447 23.0124C20.4746 22.969 20.5053 22.9262 20.5362 22.8835C20.5905 22.8081 20.6442 22.7323 20.6976 22.6563C20.7116 22.6364 20.7257 22.6166 20.7398 22.5967C20.793 22.5218 20.8449 22.4462 20.8958 22.3696C20.9259 22.3243 20.9564 22.2794 20.9874 22.2347C21.2242 21.8925 21.4483 21.5399 21.6672 21.1854C21.6716 21.1783 21.676 21.1712 21.6806 21.1639C21.711 21.1147 21.7413 21.0655 21.7715 21.0163C21.7764 21.0083 21.7813 21.0004 21.7863 20.9922C22.0697 20.5307 22.3384 20.0596 22.5969 19.583C22.6024 19.5729 22.6079 19.5627 22.6136 19.5523C22.7273 19.3424 22.8384 19.1312 22.9464 18.9182C22.9655 18.8806 22.9848 18.843 23.0042 18.8056C23.0405 18.7353 23.0759 18.6646 23.1101 18.5932C23.1306 18.5507 23.1519 18.5086 23.1736 18.4667C23.225 18.3674 23.2738 18.267 23.3218 18.1659C23.3259 18.1573 23.33 18.1488 23.3342 18.1399C23.4598 17.8759 23.5831 17.6109 23.7005 17.343C23.7162 17.3073 23.732 17.2716 23.7478 17.2359C23.7616 17.2047 23.7753 17.1735 23.789 17.1422C23.7957 17.1271 23.8023 17.112 23.809 17.0969C23.8183 17.0759 23.8275 17.0549 23.8368 17.0338C23.8395 17.0276 23.8423 17.0214 23.8452 17.0149C23.8587 16.9837 23.8681 16.9548 23.874 16.9213C23.2027 16.811 22.5297 16.7199 20.0094 16.5285C19.9999 16.5282 19.9904 16.5278 19.9805 16.5275C19.9085 16.5249 19.8365 16.5227 19.7646 16.5207C19.7578 16.5205 19.7511 16.5203 19.7441 16.5201C19.4792 16.5128 19.2145 16.51 18.9495 16.5101C18.9353 16.5101 18.9353 16.5101 18.9208 16.5101C18.5444 16.5102 18.1685 16.5158 17.7924 16.5296C17.7861 16.5298 17.7799 16.5301 17.7736 16.5303C17.1125 16.5547 16.4519 16.6035 15.6274 16.6914C15.6124 16.693 15.6124 16.693 15.5972 16.6947C15.5788 16.6967 15.5604 16.6988 15.542 16.7009C15.4954 16.706 15.45 16.7087 15.4031 16.7077C15.3567 16.6137 15.3121 16.5192 15.2695 16.4233C15.2652 16.4135 15.2652 16.4135 15.2607 16.4035C14.9255 15.6496 14.625 14.8804 14.3281 14.0477C14.3114 14.0008 14.2946 13.9539 14.2778 13.907C14.2646 13.8704 14.2516 13.8338 14.2385 13.7972C14.2323 13.7799 14.2261 13.7626 14.2199 13.7453C14.2113 13.7215 14.2028 13.6976 14.1943 13.6738C14.1918 13.6667 14.1892 13.6597 14.1866 13.6524C14.177 13.6252 14.1694 13.6033 14.1694 13.5741C14.8878 13.4762 15.6059 13.386 17.555 13.2545C17.5742 13.2537 17.5935 13.2528 17.6127 13.252C17.9936 13.2352 18.3746 13.2341 18.7558 13.2337C18.7948 13.2336 18.8339 13.2336 18.873 13.2335C19.1612 13.233 19.4491 13.2353 19.7372 13.2442C19.7433 13.2443 19.7495 13.2445 19.7558 13.2447C19.9802 13.2516 20.2047 13.26 20.4289 13.2723C20.4403 13.2729 20.4517 13.2735 20.4634 13.2742C21.1156 13.31 21.7665 13.3655 24.8245 13.8259C24.8549 13.8321 24.8852 13.8382 24.9156 13.8443C25.635 13.9895 26.3493 14.1632 28.1138 14.6869C28.1013 14.7481 28.0854 14.8075 28.0676 14.8673C28.0633 14.8818 28.0633 14.8818 28.059 14.8966C28.0496 14.9283 28.0402 14.9601 28.0307 14.9918C28.0275 15.0028 28.0242 15.0137 28.0209 15.025C27.9501 15.2633 27.8765 15.5006 27.801 15.7373C27.7969 15.7505 27.7969 15.7505 27.7926 15.7639C27.5604 16.4923 27.2976 17.2108 27.0104 17.9183C27.0052 17.9311 27.0052 17.9311 26.9999 17.9442C26.8565 18.2976 26.7059 18.6477 26.55 18.9955C26.5454 19.0057 26.5408 19.0159 26.5361 19.0264C26.5034 19.0994 26.4703 19.1721 26.437 19.2447C26.4342 19.2509 26.4314 19.257 26.4285 19.2633C26.2689 19.6118 26.1061 19.9592 25.9314 20.3C25.9137 20.3348 25.8962 20.3697 25.8787 20.4046C25.8172 20.5277 25.7552 20.6503 25.69 20.7714C25.662 20.8234 25.6348 20.8759 25.6075 20.9284C25.5561 21.0272 25.5034 21.1252 25.4492 21.2225C25.4233 21.2692 25.3978 21.3163 25.3724 21.3634C25.311 21.4774 25.2479 21.5902 25.1834 21.7025C25.1688 21.728 25.1542 21.7536 25.1397 21.7792C25.0234 21.9843 24.906 22.1888 24.7834 22.39C24.7613 22.4263 24.7396 22.4628 24.7178 22.4993C24.6539 22.606 24.589 22.7119 24.5231 22.8173C24.5081 22.8414 24.4932 22.8655 24.4782 22.8897C24.4091 23.0015 24.3391 23.1126 24.2682 23.2232C24.2545 23.2446 24.2408 23.2661 24.2271 23.2875C24.1992 23.3309 24.1714 23.3743 24.1436 23.4177C24.1323 23.4353 24.1211 23.4528 24.1098 23.4704C24.0001 23.6418 24.0001 23.6418 23.9487 23.7121C23.9332 23.7336 23.9188 23.7558 23.9044 23.7781C23.8525 23.8587 23.7981 23.9377 23.7441 24.0169C23.7275 24.0413 23.7109 24.0657 23.6943 24.0902C23.6323 24.1813 23.5694 24.2716 23.5057 24.3615C23.4869 24.3881 23.4682 24.4147 23.4494 24.4413C23.44 24.4547 23.4305 24.4681 23.4211 24.4815C23.3978 24.5145 23.3746 24.5475 23.3515 24.5806C23.2953 24.6609 23.2378 24.74 23.1791 24.8184C23.1405 24.8701 23.1025 24.9223 23.0649 24.9749C23.0157 25.0438 22.9649 25.1115 22.9135 25.1787C22.8839 25.2176 22.8546 25.2567 22.8255 25.2959C22.7797 25.3574 22.7334 25.4183 22.6867 25.4789C22.675 25.4941 22.6634 25.5092 22.6519 25.5244C22.5995 25.5931 22.5462 25.6609 22.4925 25.7284C22.4721 25.754 22.4519 25.7797 22.4318 25.8056C22.3874 25.8627 22.3423 25.9192 22.2973 25.9758C22.2858 25.9903 22.2743 26.0049 22.2628 26.0194C22.2244 26.0678 22.1853 26.1156 22.1458 26.1631C22.1208 26.1933 22.0962 26.2238 22.0718 26.2546C22.0374 26.2978 22.0021 26.3402 21.9665 26.3824C21.9396 26.4145 21.9132 26.447 21.8872 26.4799C21.8563 26.5189 21.824 26.5561 21.7909 26.5932C21.7713 26.616 21.7526 26.6393 21.734 26.663C21.7002 26.7058 21.6643 26.7461 21.6276 26.7863C21.601 26.8155 21.5759 26.8453 21.5516 26.8766C21.5129 26.926 21.4709 26.9719 21.4282 27.0177C21.396 27.0525 21.3646 27.088 21.3339 27.1242C21.314 27.1476 21.2936 27.1704 21.273 27.1932C21.2437 27.2258 21.2145 27.2586 21.1856 27.2917C21.1037 27.3851 21.0199 27.4766 20.9362 27.5683C20.9194 27.5867 20.9026 27.6052 20.8858 27.6236C20.8366 27.6776 20.7875 27.7315 20.736 27.7832C20.7213 27.7986 20.7077 27.8144 20.6942 27.8308C20.6477 27.8856 20.5966 27.9357 20.5462 27.9867C20.5332 27.9999 20.5201 28.0131 20.5071 28.0264C20.4994 28.0341 20.4918 28.0419 20.4839 28.0499C20.4654 28.069 20.4482 28.0889 20.4311 28.1092C20.3962 28.1505 20.3589 28.189 20.3212 28.2275C20.3139 28.235 20.3066 28.2424 20.2991 28.2501C20.2839 28.2658 20.2686 28.2815 20.2532 28.2971C20.23 28.3209 20.2068 28.3447 20.1835 28.3686C20.1686 28.3839 20.1537 28.3992 20.1387 28.4145C20.1319 28.4215 20.125 28.4286 20.1179 28.4358C20.0817 28.4728 20.0448 28.5081 20.0061 28.5422C19.9839 28.5622 19.9632 28.5834 19.9424 28.605C19.9361 28.6115 19.9361 28.6115 19.9297 28.6181C19.9167 28.6316 19.9036 28.6451 19.8905 28.6587C19.8405 28.7107 19.7906 28.7623 19.7363 28.8098C19.7127 28.8309 19.6909 28.8538 19.669 28.8768C19.6348 28.9123 19.6 28.9462 19.5629 28.9785C19.5419 28.9975 19.5225 29.0179 19.5028 29.0384C19.4871 29.0543 19.4709 29.0691 19.4542 29.0838C19.4181 29.1159 19.3833 29.1492 19.3486 29.1828C19.3038 29.226 19.2587 29.2688 19.2128 29.3108C19.1862 29.3354 19.1599 29.3603 19.1336 29.3853C19.0926 29.4243 19.0511 29.4626 19.0087 29.4999C18.9804 29.4873 18.9625 29.4721 18.9414 29.4493C18.9194 29.4262 18.8974 29.4041 18.8735 29.3831C18.8384 29.3522 18.8046 29.3199 18.7709 29.2874C18.7346 29.2526 18.6983 29.2178 18.6612 29.1839C18.6193 29.1456 18.5783 29.1064 18.5374 29.0671C18.5056 29.0366 18.4737 29.0062 18.4416 28.976C18.4007 28.9377 18.3607 28.8988 18.3219 28.8582C18.306 28.8423 18.2897 28.8275 18.2728 28.8127C18.2272 28.7721 18.1853 28.7279 18.143 28.6838C18.1368 28.6774 18.1307 28.6711 18.1244 28.6645C18.119 28.6589 18.1136 28.6533 18.1081 28.6475C18.091 28.6307 18.0735 28.6149 18.0556 28.599C18.0212 28.5682 17.9885 28.536 17.9563 28.5029C17.9505 28.497 17.9448 28.4911 17.9388 28.4851C17.92 28.4658 17.9012 28.4465 17.8825 28.4273C17.8693 28.4138 17.8561 28.4002 17.8429 28.3867C17.8153 28.3585 17.7878 28.3303 17.7602 28.302C17.7251 28.2659 17.6899 28.2299 17.6546 28.1939C17.6274 28.166 17.6002 28.1381 17.573 28.1102C17.56 28.0969 17.5471 28.0836 17.5341 28.0704C17.5159 28.0517 17.4977 28.0331 17.4796 28.0145C17.4743 28.0091 17.469 28.0037 17.4636 27.9981C17.4313 27.9649 17.4008 27.9306 17.3709 27.8951C17.3559 27.8773 17.3401 27.8606 17.3237 27.8442C17.3179 27.8383 17.3121 27.8324 17.3062 27.8263C17.3003 27.8205 17.2945 27.8146 17.2884 27.8085C17.2478 27.7677 17.2088 27.7262 17.1717 27.682C17.155 27.6624 17.1372 27.6442 17.119 27.6261C17.089 27.5958 17.0611 27.5644 17.0337 27.5317C17.0148 27.5098 16.9946 27.4896 16.9743 27.4692C16.9588 27.453 16.9444 27.4364 16.93 27.4193C16.8987 27.3824 16.8662 27.3467 16.8334 27.3111C16.7845 27.258 16.7364 27.2043 16.689 27.1498C16.6759 27.1349 16.6629 27.1201 16.6499 27.1053C16.6401 27.0942 16.6401 27.0942 16.6302 27.0829C16.6176 27.0685 16.6049 27.0541 16.5921 27.0398C16.5499 26.9921 16.5089 26.9435 16.4682 26.8945C16.4391 26.8596 16.4094 26.8256 16.3789 26.792C16.3422 26.7516 16.3079 26.7096 16.2741 26.6665C16.2538 26.6414 16.2327 26.6174 16.2111 26.5934C16.1762 26.5545 16.1434 26.5145 16.111 26.4734C16.0856 26.4417 16.0594 26.4107 16.033 26.3798C15.9938 26.3336 15.9553 26.287 15.9178 26.2394C15.8961 26.2122 15.8739 26.1856 15.8517 26.1589C15.8143 26.1139 15.7784 26.0679 15.7431 26.0213C15.716 25.9857 15.6881 25.9511 15.6594 25.9169C15.623 25.8733 15.5881 25.8287 15.5538 25.7834C15.5215 25.741 15.4882 25.6995 15.4547 25.6581C15.4083 25.6007 15.3634 25.5425 15.3194 25.4831C15.2961 25.4519 15.2725 25.4209 15.2489 25.39C15.2438 25.3832 15.2386 25.3764 15.2333 25.3695C15.2072 25.335 15.181 25.3006 15.1548 25.2662C15.1028 25.198 15.0512 25.1295 15.0007 25.0601C14.97 25.0179 14.9389 24.976 14.9077 24.9342C14.8597 24.8699 14.812 24.8056 14.7665 24.7394C14.7365 24.696 14.7058 24.6532 14.675 24.6105C14.6206 24.5351 14.567 24.4593 14.5135 24.3833C14.4995 24.3634 14.4855 24.3436 14.4714 24.3237C14.4177 24.2482 14.3654 24.172 14.3142 24.0948C14.287 24.0539 14.2595 24.0135 14.2313 23.9734C14.1714 23.888 14.114 23.8007 14.0565 23.7136C14.0519 23.7066 14.0473 23.6997 14.0426 23.6925C14.0101 23.6433 13.9776 23.5941 13.9451 23.5449C13.9341 23.5281 13.923 23.5114 13.912 23.4946C13.8468 23.3959 13.7824 23.2967 13.7195 23.1963C13.7011 23.1669 13.6825 23.1376 13.6639 23.1082C13.419 22.7208 13.1819 22.3286 12.9533 21.9308C12.9443 21.9151 12.9352 21.8994 12.9262 21.8838C12.7957 21.657 12.6681 21.4287 12.5439 21.1983C12.5298 21.1722 12.5157 21.1461 12.5016 21.12C12.3861 20.9066 12.2735 20.6918 12.1643 20.475C12.1403 20.4274 12.1159 20.3799 12.0913 20.3325C12.0563 20.2648 12.0228 20.1964 11.9896 20.1277C11.964 20.075 11.9376 20.0228 11.9105 19.9708C11.8763 19.9049 11.8444 19.8382 11.8132 19.7707C11.7752 19.6885 11.7362 19.6069 11.6972 19.5252C11.6295 19.3837 11.563 19.2418 11.499 19.0984C11.4863 19.0701 11.4736 19.0419 11.4609 19.0136C11.3678 18.807 11.2779 18.5989 11.1894 18.3901C11.1851 18.3799 11.1851 18.3799 11.1807 18.3695C11.0352 18.026 10.8965 17.6797 10.7637 17.3308C10.7609 17.3235 10.7581 17.3161 10.7552 17.3086C10.6088 16.9241 10.4706 16.5365 10.338 16.1468C10.3351 16.1383 10.3322 16.1298 10.3292 16.121C10.2278 15.8229 10.1336 15.5226 10.0426 15.221C10.0395 15.211 10.0365 15.2009 10.0334 15.1906C9.76494 14.3002 9.53874 13.3969 9 10.1646C9.63592 9.94427 10.276 9.74036 12.7185 9.13199C12.7243 9.13079 12.73 9.1296 12.7359 9.12837C13.4048 8.98974 14.078 8.87283 18.7992 8.49968Z" fill="#067A3A"/>
</g>
<defs>
<clipPath id="clip0_608_4450">
<rect width="20" height="21" fill="white" transform="translate(9 8.5)"/>
</clipPath>
</defs>
</svg>
