<svg width="228" height="87" viewBox="0 0 228 87" fill="none" xmlns="http://www.w3.org/2000/svg">
<g clip-path="url(#clip0_355_6688)">
<path d="M37.7785 1.43288C37.964 1.43263 38.1494 1.43237 38.3348 1.43211C38.7212 1.43166 39.1076 1.43151 39.494 1.43156C39.8825 1.43156 40.2711 1.43104 40.6597 1.43C43.0458 1.42369 45.422 1.45252 47.804 1.59786C47.9495 1.6065 47.9495 1.6065 48.0979 1.61532C48.6527 1.64883 49.2069 1.68785 49.761 1.73103C49.8427 1.7373 49.9245 1.74357 50.0087 1.75003C58.2751 2.3895 66.4903 3.82442 80.864 8.14249C80.8739 8.63648 80.8512 9.11145 80.783 9.60058C80.7743 9.66527 80.7657 9.72995 80.7568 9.79659C80.7282 10.0079 80.6988 10.2191 80.6693 10.4303C80.6539 10.5408 80.6539 10.5408 80.6383 10.6536C80.1917 13.8649 79.5614 17.0335 78.8675 20.1999C78.8552 20.2567 78.8429 20.3134 78.8302 20.3719C78.7449 20.7573 78.7449 20.7573 78.66 20.9273C78.1748 20.8261 77.7082 20.6981 77.2368 20.5454C77.0914 20.4989 76.946 20.4525 76.8006 20.4062C76.7244 20.3818 76.6483 20.3575 76.5699 20.3324C68.7693 17.8448 60.7237 16.2204 43.5195 14.7965C43.4602 14.7949 43.4009 14.7933 43.3399 14.7917C35.3577 14.5854 27.3717 15.1656 15.602 17.2175C15.5087 17.2361 15.5087 17.2361 15.4136 17.2551C15.1083 17.3143 15.1083 17.3143 14.82 17.4267C15.5725 20.3035 16.443 23.1364 17.404 25.95C17.4221 26.0031 17.4402 26.0563 17.4588 26.111C18.7106 29.7861 20.1821 33.3823 21.8151 36.9035C21.8894 37.0636 21.9635 37.2238 22.0376 37.384C23.9207 41.4496 26.0159 45.4106 28.348 49.2367C28.4179 49.3517 28.4179 49.3517 28.4893 49.4691C29.1594 50.5702 29.8413 51.662 30.552 52.7373C30.6006 52.8109 30.6492 52.8845 30.6993 52.9603C31.6168 54.3473 32.5523 55.7199 33.516 57.075C33.5546 57.1293 33.5932 57.1837 33.6329 57.2396C34.2154 58.0584 34.8166 58.8613 35.4273 59.6592C35.647 59.9464 35.8641 60.2355 36.0794 60.5261C36.5399 61.147 37.0217 61.7483 37.5119 62.3459C37.6571 62.5236 37.8002 62.7028 37.943 62.8824C38.4328 63.4967 38.9324 64.1019 39.4409 64.7007C39.7536 65.0699 40.0568 65.4463 40.356 65.8266C40.6402 65.7122 40.7771 65.5525 40.964 65.3129C41.2375 64.9687 41.5173 64.6324 41.8048 64.2998C42.1117 63.9431 42.4125 63.5831 42.704 63.2136C42.825 63.0603 42.9467 62.9078 43.0691 62.7558C43.5156 62.2011 43.9537 61.6409 44.3842 61.0738C44.6408 60.736 44.9002 60.4007 45.1619 60.0668C45.6904 59.3918 46.1972 58.7037 46.6947 58.0056C46.814 57.8388 46.9342 57.6728 47.0547 57.507C50.8386 52.2999 54.1542 46.7515 57.076 41.0178C57.1022 40.9665 57.1284 40.9151 57.1554 40.8621C58.1864 38.8388 59.1529 36.7923 60.04 34.7015C59.9883 34.6988 59.9366 34.6962 59.8833 34.6934C59.1161 34.6445 58.3616 34.5303 57.6016 34.4181C48.7591 33.1221 39.7855 32.8622 27.1407 33.8477C27.0504 33.8571 27.0504 33.8571 26.9583 33.8666C26.8481 33.8782 26.7378 33.8899 26.6276 33.9019C26.3638 33.9297 26.1053 33.9465 25.84 33.9405C25.4612 33.1988 25.1098 32.449 24.776 31.686C24.7518 31.6308 24.7276 31.5755 24.7026 31.5186C23.445 28.6487 22.3087 25.738 21.242 22.7918C21.2204 22.7323 21.1989 22.6729 21.1766 22.6116C21.1166 22.4459 21.0569 22.28 20.9974 22.114C20.9637 22.0204 20.9301 21.9268 20.8954 21.8303C20.824 21.6123 20.824 21.6123 20.824 21.4601C21.3779 21.3402 21.9314 21.2561 22.4936 21.1872C22.58 21.1764 22.6664 21.1656 22.7554 21.1545C23.0362 21.1196 23.3171 21.0852 23.598 21.051C23.6946 21.0392 23.7913 21.0274 23.8908 21.0152C26.6698 20.6765 29.4503 20.4187 32.245 20.2547C32.444 20.2429 32.6428 20.2305 32.8417 20.218C37.4691 19.9325 42.1896 19.9471 46.816 20.2424C46.8962 20.2474 46.9763 20.2524 47.0589 20.2576C55.2539 20.7683 63.3941 21.9881 75.8813 25.3554C75.953 25.3768 76.0248 25.3981 76.0987 25.4201C76.2987 25.4798 76.4984 25.5404 76.698 25.6013C76.7575 25.619 76.817 25.6367 76.8783 25.6549C77.0176 25.6981 77.1551 25.7473 77.292 25.7978C77.4255 26.0651 77.2578 26.3575 77.1715 26.6301C77.1496 26.7006 77.1277 26.7711 77.1052 26.8437C77.032 27.0787 76.9578 27.3134 76.8835 27.5481C76.8453 27.6696 76.8453 27.6696 76.8062 27.7936C74.6272 34.713 71.8849 41.3504 67.2942 50.4064C67.178 50.6173 67.0644 50.8294 66.9513 51.042C66.3726 52.1279 65.7571 53.1887 65.1252 54.2441C64.9901 54.4706 64.8563 54.6978 64.7232 54.9255C64.119 55.9589 63.4914 56.9762 62.852 57.9882C62.8039 58.0646 62.7558 58.141 62.7063 58.2198C60.78 61.2773 58.7072 64.2613 56.4944 67.1182C56.343 67.3137 56.193 67.5101 56.0433 67.7069C55.6843 68.1778 55.3142 68.6388 54.9398 69.0974C54.6692 69.4293 54.4033 69.7644 54.1405 70.1024C53.7724 70.5749 53.3893 71.033 53.0002 71.4881C52.8616 71.6506 52.724 71.8139 52.5863 71.9772C52.4113 72.1849 52.2357 72.3922 52.06 72.5995C52.0227 72.6436 51.9853 72.6877 51.9468 72.7331C51.4921 73.269 51.0319 73.7979 50.5572 74.3162C50.4115 74.4762 50.2684 74.638 50.1268 74.8017C49.8021 75.1755 49.4659 75.5388 49.1307 75.9033C49.0199 76.0242 48.9094 76.1455 48.7991 76.2669C48.4674 76.6317 48.1339 76.9924 47.7816 77.3377C47.6551 77.4668 47.5383 77.6004 47.4213 77.7383C47.0685 78.1442 46.6883 78.522 46.3081 78.9019C46.2302 78.9799 46.1523 79.0579 46.0745 79.136C45.9121 79.2986 45.7497 79.4611 45.5872 79.6235C45.3804 79.8302 45.1739 80.0371 44.9676 80.2442C44.8071 80.4051 44.6465 80.5659 44.4858 80.7266C44.4096 80.8028 44.3336 80.879 44.2576 80.9553C43.8693 81.3448 43.479 81.7267 43.0608 82.0839C42.9113 82.2129 42.773 82.3505 42.636 82.4925C42.4038 82.7282 42.1642 82.9473 41.9122 83.1614C41.7519 83.3047 41.5986 83.4516 41.4455 83.6025C41.3953 83.6514 41.3451 83.7002 41.2934 83.7505C41.192 83.8494 41.0915 83.9492 40.9919 84.05C40.6388 84.3917 40.6388 84.3917 40.3798 84.4075C40.1675 84.3005 40.0379 84.1796 39.8763 84.005C39.6216 83.7326 39.3547 83.4864 39.0732 83.2426C38.8094 83.0115 38.5545 82.7711 38.2993 82.5306C38.2231 82.4592 38.2231 82.4592 38.1453 82.3864C37.9028 82.1585 37.6637 81.9284 37.4303 81.6911C37.2553 81.5143 37.0756 81.3483 36.8864 81.1868C36.5315 80.8774 36.1991 80.548 35.867 80.2146C35.8033 80.1509 35.7396 80.0872 35.674 80.0216C35.5403 79.8877 35.4066 79.7537 35.273 79.6197C35.0699 79.4158 34.8663 79.2124 34.6627 79.009C34.5321 78.8782 34.4015 78.7473 34.271 78.6165C34.1807 78.5263 34.1807 78.5263 34.0886 78.4343C33.7708 78.1147 33.4649 77.7894 33.172 77.4466C33.0166 77.2678 32.8496 77.1025 32.68 76.9372C32.4171 76.6767 32.1686 76.4114 31.9283 76.1301C31.703 75.874 31.4693 75.626 31.236 75.3772C30.9168 75.0363 30.6001 74.6946 30.2958 74.3403C30.1464 74.1681 29.9929 74 29.8395 73.8314C29.5468 73.5066 29.2699 73.1717 28.9952 72.8317C28.7714 72.5599 28.5413 72.2942 28.31 72.0287C27.908 71.5667 27.5167 71.0976 27.132 70.6209C27.0547 70.5259 26.9773 70.431 26.8999 70.3361C26.4 69.7229 25.9058 69.1057 25.4199 68.4813C25.2992 68.3265 25.178 68.1721 25.0569 68.0177C24.4611 67.2568 23.8828 66.4844 23.313 65.7038C23.1807 65.5231 23.0475 65.343 22.914 65.1631C21.2981 62.9835 19.7785 60.7301 18.316 58.4448C18.2814 58.3908 18.2467 58.3367 18.2111 58.281C14.7156 52.8124 11.6275 47.0534 9.03738 41.1008C8.94835 40.8966 8.85865 40.6928 8.76894 40.4889C5.8948 33.9534 3.67231 27.1381 0.0962986 9.5201C0.0823895 9.41042 0.0683061 9.30076 0.0540751 9.19112C0.00213243 8.7866 -0.00563327 8.39707 9.06549e-06 7.99029C6.09397 5.39833 13.0297 4.11868 19.532 3.04377C19.6019 3.03221 19.6719 3.02065 19.7439 3.00873C23.8574 2.33201 28.0024 1.88331 32.1623 1.62164C32.2358 1.617 32.3094 1.61237 32.3852 1.60759C34.1829 1.49572 35.9773 1.43345 37.7785 1.43288Z" fill="#067A3A"/>
<path d="M118.788 1.97852C135.504 1.97852 135.504 1.97852 137.658 4.12716C137.726 4.19662 137.794 4.26607 137.864 4.33763C137.955 4.42533 137.955 4.42533 138.048 4.5148C139.65 6.14368 140 8.6909 140.01 10.8659C140.01 10.9234 140.011 10.981 140.011 11.0403C140.013 11.3458 140.014 11.6514 140.014 11.957C140.015 12.2056 140.017 12.4541 140.019 12.7027C140.045 15.4389 139.886 18.1737 137.864 20.2426C137.286 20.7503 136.647 21.1171 135.964 21.4602C136.032 21.4971 136.1 21.534 136.17 21.572C137.906 22.5288 139.023 23.8966 139.582 25.8037C139.888 26.9271 140.011 28.0521 140.029 29.2124C140.032 29.3951 140.036 29.5777 140.04 29.7603C140.051 30.2789 140.061 30.7975 140.07 31.3161C140.077 31.6978 140.085 32.0795 140.094 32.4612C140.095 32.5233 140.097 32.5854 140.098 32.6495C140.129 33.8981 140.233 35.1349 140.372 36.3759C140.397 36.3759 140.422 36.3759 140.448 36.3759C140.465 36.275 140.465 36.275 140.483 36.172C141.763 28.6619 143.043 21.1519 144.326 13.6424C144.403 13.1919 144.48 12.7413 144.557 12.2908C144.823 10.7341 145.089 9.17738 145.356 7.62077C145.467 6.97154 145.578 6.32228 145.689 5.67298C145.762 5.24448 145.835 4.81601 145.908 4.38757C145.95 4.14523 145.991 3.90288 146.032 3.6605C146.076 3.40214 146.121 3.14383 146.165 2.88553C146.178 2.81018 146.19 2.73482 146.204 2.65718C146.215 2.58925 146.227 2.52133 146.239 2.45135C146.249 2.39263 146.259 2.33391 146.269 2.27341C146.3 2.13072 146.3 2.13072 146.376 1.97852C149.937 1.97852 153.499 1.97852 157.168 1.97852C157.769 5.42287 157.769 5.42287 157.965 6.54532C157.978 6.62331 157.992 6.7013 158.006 6.78165C158.34 8.70256 158.671 10.624 159.002 12.5455C159.024 12.6767 159.024 12.6767 159.047 12.8106C159.282 14.1766 159.517 15.5425 159.752 16.9085C161.064 24.54 162.384 32.1701 163.704 39.8004C163.742 21.0786 163.742 21.0786 163.78 1.97852C167.341 1.97852 170.903 1.97852 174.572 1.97852C174.729 2.39726 174.867 2.80247 174.983 3.23192C175 3.29372 175.017 3.35551 175.034 3.41918C175.09 3.62369 175.146 3.82831 175.201 4.03293C175.241 4.17898 175.281 4.32503 175.321 4.47106C175.428 4.86344 175.534 5.25592 175.641 5.64842C175.752 6.05829 175.864 6.4681 175.975 6.8779C175.998 6.95983 176.02 7.04176 176.043 7.12617C176.088 7.29207 176.133 7.45797 176.178 7.62387C176.247 7.87402 176.315 8.12419 176.383 8.37435C176.658 9.38632 176.936 10.3977 177.215 11.4084C177.901 13.8861 178.571 16.3631 179.132 18.8728C179.16 18.9968 179.16 18.9968 179.188 19.1234C179.452 20.3073 179.712 21.4922 179.968 22.6778C179.977 22.1102 179.965 21.5465 179.935 20.9798C179.932 20.9154 179.929 20.8509 179.925 20.7846C179.922 20.7178 179.918 20.6511 179.915 20.5824C179.812 18.597 179.796 16.6159 179.801 14.6283C179.802 14.181 179.802 13.7337 179.802 13.2864C179.802 12.4456 179.804 11.6049 179.805 10.7641C179.807 9.62357 179.808 8.48304 179.809 7.34251C179.81 5.55451 179.813 3.76652 179.816 1.97852C182.098 1.97852 184.381 1.97852 186.732 1.97852C186.732 14.6606 186.732 27.3428 186.732 40.4092C183.371 40.4092 180.011 40.4092 176.548 40.4092C176.186 39.0225 176.186 39.0225 175.817 37.6077C175.25 35.4415 174.681 33.276 174.108 31.1117C174.019 30.7761 173.93 30.4404 173.842 30.1047C173.538 28.9563 173.235 27.8079 172.921 26.6621C172.001 23.2794 171.246 19.8552 170.468 16.4376C170.474 16.597 170.481 16.7565 170.487 16.916C170.494 17.0728 170.5 17.2297 170.506 17.3866C170.525 17.8481 170.546 18.3092 170.571 18.7703C170.7 21.0967 170.717 23.4181 170.711 25.7475C170.711 26.2125 170.71 26.6775 170.71 27.1425C170.71 28.0603 170.709 28.9781 170.707 29.8959C170.706 30.7847 170.705 31.6735 170.704 32.5623C170.704 32.6181 170.704 32.6739 170.704 32.7314C170.704 33.2174 170.704 33.7034 170.703 34.1893C170.702 36.2626 170.699 38.3359 170.696 40.4092C165.63 40.4092 160.564 40.4092 155.344 40.4092C154.508 35.691 154.508 35.691 154.508 35.3866C152.451 35.3866 150.395 35.3866 148.276 35.3866C148.251 35.6628 148.226 35.9391 148.2 36.2237C147.974 37.6049 147.749 38.9861 147.516 40.4092C142.676 40.4092 137.835 40.4092 132.848 40.4092C131.662 38.0339 131.639 35.2033 131.616 32.5988C131.615 32.484 131.614 32.3692 131.613 32.2544C131.608 31.7807 131.604 31.3069 131.602 30.8332C131.696 28.1211 131.696 28.1211 130.569 25.7738C129.594 24.9553 128.274 25.0871 127.072 25.0369C127.072 30.1098 127.072 35.1826 127.072 40.4092C124.338 40.4092 121.605 40.4092 118.788 40.4092C118.788 27.7271 118.788 15.0449 118.788 1.97852ZM127.072 9.28415C127.072 12.0717 127.072 14.8593 127.072 17.7313C129.112 17.8969 129.112 17.8969 131.048 17.1891C131.499 16.6865 131.64 16.0923 131.644 15.4337C131.645 15.3402 131.646 15.2467 131.646 15.1503C131.647 15.0488 131.647 14.9473 131.647 14.8457C131.648 14.7941 131.648 14.7425 131.648 14.6894C131.649 14.4161 131.65 14.1429 131.65 13.8696C131.651 13.5893 131.653 13.309 131.655 13.0287C131.656 12.8114 131.656 12.5942 131.657 12.377C131.657 12.224 131.658 12.071 131.66 11.918C131.658 11.1759 131.592 10.4816 131.1 9.89295C130.092 8.94928 128.239 9.28415 127.072 9.28415ZM151.392 12.3282C151.383 12.4162 151.383 12.4162 151.374 12.5061C151.09 15.2323 150.798 17.957 150.447 20.6754C150.44 20.7295 150.433 20.7835 150.426 20.8392C150.183 22.7161 149.921 24.5902 149.647 26.4627C149.625 26.6104 149.603 26.758 149.582 26.9057C149.556 27.0848 149.529 27.2638 149.503 27.4428C149.491 27.5218 149.48 27.6008 149.468 27.6822C149.458 27.7504 149.448 27.8187 149.437 27.889C149.409 28.1118 149.409 28.1118 149.416 28.4614C150.72 28.4614 152.024 28.4614 153.368 28.4614C153.317 27.8036 153.256 27.1637 153.159 26.5134C153.132 26.3248 153.104 26.1362 153.077 25.9475C153.062 25.8483 153.048 25.7491 153.033 25.6469C152.745 23.6634 152.486 21.6768 152.252 19.6861C152.245 19.6258 152.238 19.5654 152.23 19.5032C151.949 17.1142 151.699 14.7224 151.468 12.3282C151.443 12.3282 151.418 12.3282 151.392 12.3282Z" fill="#FAFAFA"/>
<path d="M217.195 44.571C217.411 44.5712 217.626 44.5694 217.841 44.5675C219.06 44.5632 220.268 44.6756 221.44 45.0278C221.506 45.0472 221.571 45.0665 221.639 45.0864C223.808 45.7548 225.57 47.1719 226.642 49.178C227.766 51.3884 227.963 53.7889 227.938 56.2288C227.934 56.8849 227.929 57.541 227.924 58.217C225.341 58.217 222.758 58.217 220.096 58.217C220.072 56.1813 220.072 56.1813 220.067 55.5443C220.064 55.3749 220.062 55.2056 220.059 55.0362C220.058 54.9505 220.058 54.8648 220.057 54.7765C220.042 53.9375 219.937 53.0672 219.336 52.4333C218.648 51.9635 217.858 51.9909 217.056 52.0528C216.592 52.145 216.217 52.3369 215.935 52.7241C215.321 53.797 215.373 55.3161 215.655 56.4904C216.412 58.8264 218.5 60.102 220.461 61.3459C223.816 63.479 226.665 66.0645 227.598 70.0937C227.698 70.5711 227.784 71.051 227.848 71.5345C227.854 71.5816 227.861 71.6288 227.868 71.6773C227.929 72.1679 227.938 72.6544 227.939 73.1484C227.94 73.2367 227.94 73.325 227.941 73.416C227.941 73.6026 227.942 73.7892 227.942 73.9757C227.943 74.2561 227.945 74.5364 227.948 74.8168C227.96 77.5725 227.415 80.3182 225.416 82.3485C224.772 82.9804 224.082 83.4461 223.288 83.8628C223.222 83.8979 223.156 83.933 223.088 83.9692C222.023 84.4938 220.811 84.7741 219.64 84.9282C219.588 84.9354 219.536 84.9425 219.483 84.9499C216.56 85.3004 213.026 85.0585 210.627 83.1797C210.567 83.1288 210.506 83.078 210.444 83.0257C210.347 82.9447 210.347 82.9447 210.249 82.8622C208.586 81.4132 207.722 79.5273 207.276 77.399C207.26 77.328 207.245 77.2571 207.229 77.184C206.918 75.6127 206.927 74.0044 206.938 72.4097C206.942 71.7693 206.945 71.1289 206.948 70.4691C209.531 70.4691 212.114 70.4691 214.776 70.4691C214.8 72.9186 214.8 72.9186 214.805 73.6859C214.808 73.8894 214.81 74.0929 214.813 74.2964C214.813 74.3479 214.814 74.3993 214.814 74.4523C214.82 75.7996 214.82 75.7996 215.414 76.9695C215.901 77.4505 216.445 77.5684 217.113 77.575C217.713 77.5711 218.257 77.5029 218.737 77.1104C219.57 76.2416 219.444 74.954 219.433 73.8375C219.4 72.5411 218.953 71.461 218.12 70.4691C218.064 70.3938 218.007 70.3184 217.949 70.2408C217.032 69.1595 215.599 68.3735 214.422 67.6162C213.144 66.7923 211.874 65.9422 210.785 64.8723C210.671 64.7606 210.555 64.6512 210.438 64.5419C208.044 62.2644 207.053 58.9962 206.939 55.764C206.933 55.5099 206.93 55.2559 206.929 55.0017C206.928 54.9254 206.928 54.849 206.927 54.7703C206.93 54.0518 207.019 53.3885 207.1 52.6616C205.344 52.6616 203.589 52.6616 201.78 52.6616C201.78 63.1087 201.78 73.5557 201.78 84.3194C198.996 84.3194 196.212 84.3194 193.344 84.3194C193.344 73.8723 193.344 63.4253 193.344 52.6616C191.463 52.6616 189.582 52.6616 187.644 52.6616C187.669 52.963 187.694 53.2644 187.72 53.5748C187.726 53.7418 187.73 53.9089 187.731 54.0759C187.732 54.2063 187.732 54.2063 187.733 54.3393C187.733 54.4756 187.733 54.4756 187.733 54.6147C187.733 54.7115 187.733 54.8083 187.734 54.908C187.734 55.1118 187.734 55.3155 187.734 55.5193C187.734 55.7252 187.735 55.931 187.736 56.1369C187.749 58.8429 187.578 61.6051 185.625 63.6727C185.025 64.2417 184.367 64.6501 183.616 64.9899C183.843 65.1704 184.078 65.3052 184.333 65.4417C185.944 66.38 186.851 67.9792 187.336 69.7393C187.71 71.2072 187.752 72.7115 187.761 74.219C187.764 74.7118 187.771 75.2045 187.778 75.6972C187.779 75.7927 187.78 75.8883 187.782 75.9868C187.826 78.9663 188.128 81.635 189.468 84.3194C186.458 84.3194 183.449 84.3194 180.348 84.3194C179.813 82.8897 179.813 82.8897 179.688 82.3408C179.672 82.2751 179.657 82.2095 179.642 82.1419C179.304 80.6178 179.201 79.0462 179.191 77.4887C179.189 77.3073 179.187 77.1259 179.186 76.9444C179.18 76.4293 179.176 75.9142 179.172 75.3991C179.317 72.2088 179.317 72.2088 178.09 69.4186C177.123 68.5991 175.642 68.7247 174.496 68.6427C174.496 73.816 174.496 78.9893 174.496 84.3194C171.712 84.3194 168.928 84.3194 166.06 84.3194C166.06 71.4112 166.06 58.5031 166.06 45.2038C183.105 45.2038 183.105 45.2038 185.546 47.5885C186.552 48.6494 187.02 49.9054 187.416 51.2918C187.441 49.2828 187.466 47.2737 187.492 45.2038C194.113 45.2038 200.734 45.2038 207.556 45.2038C207.581 46.8613 207.606 48.5187 207.632 50.2264C207.883 49.699 208.134 49.1717 208.392 48.6283C208.615 48.3005 208.821 48.0118 209.076 47.7151C209.129 47.6501 209.182 47.585 209.236 47.518C210.581 45.926 212.606 45.0783 214.624 44.7472C214.702 44.7338 214.78 44.7204 214.861 44.7066C215.64 44.5866 216.408 44.5692 217.195 44.571ZM174.496 52.6616C174.496 55.4994 174.496 58.3372 174.496 61.261C176.591 61.4321 176.591 61.4321 178.579 60.6902C179.242 59.9869 179.22 59.0252 179.221 58.1159C179.221 58.0257 179.221 57.9356 179.222 57.8427C179.222 57.6523 179.222 57.462 179.222 57.2716C179.222 56.9824 179.224 56.6932 179.225 56.4039C179.225 56.2183 179.225 56.0327 179.226 55.8471C179.226 55.7616 179.227 55.676 179.227 55.5879C179.225 54.791 179.191 53.9153 178.635 53.2918C177.548 52.2797 175.801 52.6616 174.496 52.6616Z" fill="#FAFAFA"/>
<path d="M152.523 44.5795C152.63 44.5788 152.63 44.5788 152.739 44.5782C152.89 44.5775 153.041 44.577 153.191 44.5767C153.416 44.5759 153.641 44.5736 153.866 44.5712C155.13 44.564 156.395 44.6592 157.61 45.0325C157.708 45.0618 157.708 45.0618 157.808 45.0917C160.184 45.8247 162.002 47.3099 163.17 49.5153C164.094 51.3413 164.4 53.4809 164.399 55.5081C164.399 55.6316 164.399 55.6316 164.399 55.7576C164.4 56.031 164.4 56.3043 164.4 56.5777C164.401 56.7748 164.401 56.9719 164.401 57.169C164.402 57.7029 164.403 58.2367 164.403 58.7706C164.403 59.105 164.404 59.4394 164.404 59.7738C164.405 60.7027 164.406 61.6315 164.406 62.5604C164.406 62.6197 164.406 62.679 164.406 62.7401C164.406 62.7996 164.406 62.859 164.406 62.9203C164.406 63.0407 164.406 63.1611 164.406 63.2815C164.406 63.3413 164.406 63.401 164.406 63.4625C164.407 64.4279 164.408 65.3932 164.41 66.3586C164.412 67.3536 164.412 68.3485 164.413 69.3435C164.413 69.9006 164.413 70.4577 164.414 71.0147C164.416 71.5398 164.416 72.0649 164.415 72.59C164.415 72.781 164.415 72.9721 164.416 73.1632C164.429 76.5417 163.922 79.8929 161.472 82.393C161.081 82.7827 160.678 83.1137 160.208 83.4061C160.152 83.4439 160.096 83.4817 160.038 83.5206C159.166 84.0835 158.207 84.4028 157.206 84.6475C157.131 84.666 157.057 84.6844 156.98 84.7034C155.838 84.9677 154.697 85.0356 153.53 85.0328C153.465 85.0327 153.401 85.0327 153.335 85.0326C150.415 85.024 147.507 84.3818 145.364 82.2789C144.9 81.8063 144.517 81.3106 144.172 80.7426C144.12 80.657 144.068 80.5713 144.014 80.4831C143.436 79.4893 143.097 78.3806 142.856 77.261C142.845 77.2091 142.834 77.1572 142.822 77.1037C142.567 75.8128 142.554 74.534 142.555 73.2232C142.555 73.0197 142.554 72.8161 142.554 72.6126C142.553 72.12 142.553 71.6273 142.553 71.1346C142.553 70.7335 142.553 70.3324 142.553 69.9312C142.553 69.8738 142.553 69.8164 142.553 69.7573C142.552 69.6406 142.552 69.524 142.552 69.4073C142.551 68.3164 142.552 67.2255 142.552 66.1347C142.552 65.1406 142.552 64.1466 142.55 63.1526C142.549 62.1278 142.548 61.1029 142.548 60.0781C142.549 59.5044 142.548 58.9307 142.547 58.357C142.546 57.8685 142.546 57.3799 142.547 56.8914C142.548 56.643 142.548 56.3947 142.547 56.1463C142.538 53.1546 142.993 50.1739 144.932 47.7912C144.979 47.732 145.025 47.6729 145.073 47.6119C146.675 45.6789 149.203 44.9014 151.605 44.6104C151.911 44.5821 152.217 44.581 152.523 44.5795ZM151.782 52.4666C151.728 52.5309 151.675 52.5953 151.62 52.6616C151.54 52.7463 151.54 52.7463 151.459 52.8328C150.997 53.5102 151.001 54.3244 151.001 55.114C151.001 55.1994 151.001 55.2849 151.001 55.373C151 55.6591 151 55.9452 151 56.2313C150.999 56.4366 150.999 56.6419 150.999 56.8472C150.998 57.4047 150.997 57.9623 150.997 58.5199C150.997 58.8684 150.996 59.217 150.996 59.5655C150.995 60.5316 150.994 61.4977 150.994 62.4639C150.994 62.5256 150.994 62.5874 150.994 62.6511C150.994 62.713 150.994 62.7749 150.994 62.8387C150.994 62.9642 150.994 63.0896 150.994 63.2151C150.994 63.2773 150.994 63.3396 150.994 63.4037C150.993 64.4113 150.992 65.4188 150.99 66.4264C150.988 67.4623 150.988 68.4982 150.987 69.5341C150.987 70.1152 150.987 70.6962 150.986 71.2772C150.984 71.7722 150.984 72.2671 150.985 72.762C150.985 73.0141 150.985 73.2663 150.984 73.5184C150.917 75.4222 150.917 75.4222 151.739 77.0675C152.291 77.5932 152.904 77.6603 153.643 77.6544C154.263 77.6331 154.794 77.501 155.263 77.0755C156.207 75.9996 155.974 74.2354 155.972 72.9046C155.972 72.7068 155.972 72.509 155.972 72.3113C155.973 71.8326 155.973 71.3539 155.973 70.8752C155.972 70.4858 155.972 70.0964 155.972 69.707C155.972 69.6234 155.972 69.6234 155.972 69.5382C155.972 69.4251 155.973 69.3119 155.973 69.1987C155.973 68.1407 155.973 67.0827 155.972 66.0247C155.971 65.1191 155.971 64.2136 155.972 63.308C155.973 62.2534 155.973 61.1987 155.972 60.144C155.972 60.0313 155.972 59.9186 155.972 59.8059C155.972 59.7505 155.972 59.6951 155.972 59.6379C155.972 59.2495 155.972 58.861 155.973 58.4725C155.973 57.9486 155.973 57.4248 155.972 56.9009C155.972 56.7093 155.972 56.5177 155.972 56.3262C156.043 54.3645 156.043 54.3645 155.344 52.5855C154.685 51.98 153.965 51.9353 153.114 51.9526C152.58 51.9782 152.19 52.1201 151.782 52.4666Z" fill="#FAFAFA"/>
<path d="M188.328 1.97852C204.355 1.97852 204.355 1.97852 207.176 4.79423C208.406 6.11237 209.071 7.74972 209.38 9.51245C209.393 9.58217 209.406 9.6519 209.419 9.72373C209.575 10.7121 209.554 11.7031 209.553 12.7014C209.553 12.9076 209.554 13.1137 209.554 13.3198C209.555 13.8193 209.555 14.3189 209.555 14.8184C209.555 15.225 209.555 15.6315 209.555 16.0381C209.555 16.0963 209.555 16.1544 209.555 16.2143C209.556 16.3324 209.556 16.4505 209.556 16.5686C209.557 17.6737 209.556 18.7787 209.556 19.8838C209.556 20.8915 209.556 21.8992 209.558 22.9069C209.559 23.9451 209.56 24.9833 209.56 26.0214C209.56 26.6029 209.56 27.1844 209.561 27.7658C209.562 28.261 209.562 28.7561 209.561 29.2512C209.56 29.5031 209.56 29.755 209.561 30.0068C209.565 31.4078 209.507 32.784 209.105 34.1357C209.085 34.2008 209.066 34.2659 209.047 34.333C208.71 35.4257 208.221 36.4161 207.48 37.2891C207.427 37.3543 207.374 37.4196 207.32 37.4868C205.633 39.4809 203.054 40.1322 200.564 40.4092C196.526 40.4092 192.488 40.4092 188.328 40.4092C188.328 27.7271 188.328 15.0449 188.328 1.97852ZM196.612 9.28415C196.612 17.1446 196.612 25.005 196.612 33.1036C198.841 33.3051 198.841 33.3051 200.723 32.443C201.107 31.9769 201.257 31.3678 201.258 30.7715C201.258 30.6677 201.258 30.6677 201.259 30.5619C201.259 30.4866 201.259 30.4113 201.259 30.3337C201.259 30.2531 201.259 30.1726 201.259 30.0896C201.26 29.8193 201.26 29.549 201.26 29.2787C201.261 29.0851 201.261 28.8915 201.261 28.6978C201.262 28.1714 201.263 27.645 201.263 27.1185C201.263 26.7896 201.264 26.4607 201.264 26.1318C201.265 25.2204 201.266 24.3091 201.266 23.3977C201.266 23.3394 201.266 23.2811 201.266 23.221C201.266 23.1626 201.266 23.1042 201.266 23.0439C201.266 22.9255 201.266 22.8071 201.266 22.6887C201.266 22.6006 201.266 22.6006 201.266 22.5107C201.267 21.5596 201.268 20.6084 201.27 19.6573C201.272 18.6799 201.272 17.7026 201.273 16.7253C201.273 16.1768 201.273 15.6284 201.274 15.08C201.276 14.564 201.276 14.0479 201.275 13.5319C201.275 13.3427 201.275 13.1536 201.276 12.9645C201.277 12.7057 201.277 12.4469 201.276 12.1881C201.277 12.1138 201.277 12.0395 201.278 11.963C201.273 11.2281 201.133 10.4637 200.64 9.89295C199.645 8.96697 197.735 9.28415 196.612 9.28415Z" fill="#FAFAFA"/>
<path d="M106.883 1.33984C107.084 1.34107 107.285 1.33984 107.486 1.33839C109.876 1.33549 112.392 1.88765 114.228 3.50041C114.285 3.54623 114.341 3.59204 114.4 3.63924C116.457 5.35083 117.146 8.15058 117.4 10.6965C117.463 11.5172 117.443 12.3427 117.434 13.1652C117.43 13.8181 117.425 14.471 117.42 15.1438C114.887 15.1438 112.354 15.1438 109.744 15.1438C109.72 12.9131 109.72 12.9131 109.715 12.2138C109.712 12.0286 109.71 11.8435 109.707 11.6583C109.706 11.564 109.706 11.4697 109.705 11.3725C109.691 10.4839 109.579 9.72805 108.932 9.07952C108.304 8.59826 107.536 8.60727 106.78 8.67524C106.33 8.77917 105.877 8.93337 105.564 9.28404C105.106 10.0283 105.009 10.7428 105.012 11.6035C105.012 11.6893 105.012 11.775 105.011 11.8633C105.011 12.1493 105.011 12.4353 105.011 12.7213C105.011 12.9268 105.01 13.1324 105.01 13.3379C105.009 13.8376 105.009 14.3373 105.009 14.837C105.009 15.2434 105.009 15.6497 105.009 16.0561C105.009 16.1141 105.009 16.172 105.009 16.2317C105.008 16.3494 105.008 16.4671 105.008 16.5848C105.007 17.6878 105.008 18.7907 105.008 19.8936C105.008 20.9013 105.008 21.909 105.006 22.9166C105.005 23.9527 105.004 24.9888 105.004 26.0249C105.005 26.606 105.004 27.1871 105.003 27.7682C105.002 28.263 105.002 28.7577 105.003 29.2525C105.004 29.5046 105.004 29.7567 105.003 30.0088C105.002 30.2829 105.003 30.557 105.004 30.8311C105.003 30.9489 105.003 30.949 105.002 31.0692C105.008 31.8614 105.124 32.6263 105.675 33.2238C106.153 33.6853 106.696 33.7984 107.345 33.8169C108 33.7984 108.618 33.7061 109.103 33.2351C109.593 32.6415 109.69 31.9119 109.692 31.1671C109.693 31.0979 109.694 31.0288 109.695 30.9576C109.697 30.7311 109.698 30.5047 109.699 30.2782C109.701 30.1204 109.702 29.9626 109.704 29.8048C109.708 29.391 109.711 28.9771 109.714 28.5633C109.717 28.1404 109.721 27.7175 109.724 27.2946C109.732 26.4659 109.738 25.6372 109.744 24.8085C108.941 24.8085 108.139 24.8085 107.312 24.8085C107.312 22.6488 107.312 20.4891 107.312 18.2639C110.748 18.2639 114.184 18.2639 117.724 18.2639C117.724 25.5718 117.724 32.8797 117.724 40.4091C116.269 40.4091 114.815 40.4091 113.316 40.4091C113.128 39.7517 112.949 39.1057 112.803 38.44C112.786 38.3649 112.77 38.2899 112.752 38.2126C112.712 38.0316 112.672 37.8506 112.632 37.6695C112.488 37.8479 112.346 38.0264 112.209 38.2102C110.95 39.8984 109.241 40.7007 107.194 41.0247C106.62 41.1039 106.053 41.1203 105.474 41.1178C105.423 41.1176 105.371 41.1174 105.318 41.1173C103.199 41.1064 101.086 40.637 99.5354 39.0961C99.4683 39.0271 99.4012 38.9581 99.332 38.8871C99.2704 38.8252 99.2088 38.7633 99.1453 38.6995C97.2753 36.7313 96.6592 33.7051 96.6613 31.0723C96.6611 30.9857 96.6609 30.8992 96.6607 30.81C96.66 30.5216 96.6599 30.2333 96.6598 29.9449C96.6595 29.7374 96.659 29.53 96.6586 29.3225C96.6576 28.7599 96.6571 28.1973 96.6568 27.6347C96.6566 27.2826 96.6563 26.9305 96.6559 26.5785C96.655 25.6015 96.6542 24.6245 96.654 23.6476C96.6539 23.5851 96.6539 23.5227 96.6539 23.4584C96.6539 23.3958 96.6539 23.3333 96.6539 23.2688C96.6538 23.142 96.6538 23.0153 96.6538 22.8885C96.6537 22.8256 96.6537 22.7628 96.6537 22.698C96.6534 21.681 96.6521 20.6639 96.6503 19.6469C96.6485 18.5999 96.6476 17.5529 96.6475 16.5058C96.6474 15.9191 96.647 15.3324 96.6456 14.7457C96.6444 14.2458 96.644 13.7458 96.6447 13.2459C96.6449 12.9915 96.6448 12.7372 96.6438 12.4828C96.6388 11.0542 96.7091 9.65396 97.0758 8.2662C97.0919 8.20403 97.1079 8.14187 97.1245 8.07782C97.7115 5.89066 98.9657 3.92602 100.928 2.73941C101.639 2.33563 102.381 2.02869 103.165 1.79767C103.252 1.77181 103.252 1.77181 103.34 1.74542C104.5 1.4287 105.686 1.3312 106.883 1.33984Z" fill="#FAFAFA"/>
<path d="M106.689 44.5794C106.793 44.5788 106.793 44.5788 106.9 44.5781C107.047 44.5774 107.194 44.5769 107.341 44.5766C107.56 44.5759 107.78 44.5735 107.999 44.5711C109.227 44.5641 110.439 44.6728 111.62 45.0277C111.686 45.0471 111.751 45.0664 111.819 45.0863C113.988 45.7548 115.75 47.1718 116.822 49.1779C117.946 51.3883 118.143 53.7888 118.118 56.2287C118.114 56.8848 118.109 57.5409 118.104 58.2169C115.521 58.2169 112.938 58.2169 110.276 58.2169C110.252 56.1812 110.252 56.1812 110.247 55.5442C110.244 55.3748 110.242 55.2055 110.239 55.0361C110.238 54.9504 110.238 54.8647 110.237 54.7764C110.222 53.9374 110.117 53.0671 109.516 52.4332C108.828 51.9635 108.038 51.9908 107.236 52.0527C106.772 52.1449 106.397 52.3368 106.115 52.724C105.501 53.7969 105.553 55.316 105.835 56.4903C106.592 58.8263 108.68 60.1019 110.641 61.3458C113.996 63.4789 116.845 66.0644 117.778 70.0937C117.878 70.571 117.964 71.0509 118.028 71.5344C118.034 71.5815 118.041 71.6287 118.048 71.6772C118.109 72.1678 118.118 72.6543 118.119 73.1483C118.12 73.2366 118.12 73.3249 118.121 73.4159C118.121 73.6025 118.122 73.7891 118.122 73.9756C118.123 74.256 118.125 74.5363 118.128 74.8167C118.14 77.5724 117.595 80.3181 115.596 82.3484C114.952 82.9803 114.262 83.446 113.468 83.8627C113.402 83.8978 113.336 83.9329 113.268 83.9691C112.203 84.4937 110.991 84.774 109.82 84.9281C109.742 84.9389 109.742 84.9389 109.663 84.9498C106.74 85.3003 103.206 85.0584 100.807 83.1796C100.717 83.1033 100.717 83.1033 100.624 83.0256C100.56 82.9716 100.495 82.9177 100.429 82.8621C98.7661 81.4131 97.9021 79.5272 97.4558 77.3989C97.4404 77.3279 97.425 77.257 97.4091 77.1839C97.0979 75.6126 97.1074 74.0043 97.1185 72.4096C97.1232 71.449 97.1232 71.449 97.128 70.469C99.7113 70.469 102.295 70.469 104.956 70.469C104.98 72.9185 104.98 72.9185 104.986 73.6858C104.988 73.8893 104.991 74.0928 104.993 74.2963C104.993 74.3478 104.994 74.3992 104.994 74.4522C105 75.7995 105 75.7995 105.594 76.9694C106.081 77.4504 106.625 77.5683 107.293 77.5749C107.893 77.571 108.437 77.5028 108.917 77.1103C109.75 76.2415 109.624 74.9539 109.613 73.8374C109.58 72.541 109.133 71.4609 108.3 70.469C108.244 70.3937 108.187 70.3183 108.129 70.2407C107.212 69.1594 105.779 68.3734 104.602 67.6161C103.324 66.7922 102.054 65.9421 100.965 64.8722C100.851 64.7605 100.735 64.6511 100.618 64.5418C98.2245 62.2647 97.2346 58.9988 97.1194 55.7676C97.0481 52.766 97.4523 49.635 99.56 47.3345C101.375 45.4367 104.113 44.5923 106.689 44.5794Z" fill="#FAFAFA"/>
<path d="M119.472 45.2036C135.726 45.2036 135.726 45.2036 138.709 48.1801C140.369 49.9523 140.99 52.5655 140.992 54.9301C140.993 55.0176 140.993 55.1051 140.993 55.1952C140.994 55.4831 140.995 55.771 140.995 56.0589C140.996 56.2096 140.996 56.3604 140.996 56.5111C140.997 56.9313 140.998 57.3515 140.998 57.7717C140.998 58.3106 141 58.8494 141.002 59.3883C141.004 59.8078 141.004 60.2273 141.005 60.6468C141.005 60.8959 141.005 61.145 141.006 61.3941C141.013 62.8174 140.959 64.2081 140.543 65.5795C140.524 65.6452 140.504 65.7109 140.484 65.7786C139.813 67.9739 138.486 69.6213 136.486 70.7564C133.813 72.1769 130.87 71.9909 127.908 71.9909C127.908 76.0593 127.908 80.1276 127.908 84.3192C125.124 84.3192 122.34 84.3192 119.472 84.3192C119.472 71.4111 119.472 58.5029 119.472 45.2036ZM127.908 52.6614C127.908 56.6042 127.908 60.547 127.908 64.6092C130.011 64.7745 130.011 64.7745 131.904 63.96C132.502 63.3218 132.555 62.5687 132.556 61.7285C132.557 61.6542 132.557 61.5799 132.557 61.5033C132.558 61.2582 132.559 61.0131 132.559 60.7679C132.56 60.5967 132.56 60.4255 132.561 60.2543C132.562 59.8955 132.562 59.5366 132.562 59.1777C132.563 58.7197 132.564 58.2617 132.567 57.8037C132.568 57.45 132.568 57.0963 132.569 56.7425C132.569 56.5738 132.569 56.405 132.57 56.2363C132.623 54.5897 132.623 54.5897 131.86 53.1941C130.865 52.3168 128.973 52.6614 127.908 52.6614Z" fill="#FAFAFA"/>
<path d="M210.9 1.97852C216.292 1.97852 221.684 1.97852 227.24 1.97852C227.24 4.38937 227.24 6.80023 227.24 9.28415C224.582 9.28415 221.923 9.28415 219.184 9.28415C219.184 11.7703 219.184 14.2565 219.184 16.8181C221.416 16.8181 223.648 16.8181 225.948 16.8181C225.948 19.2289 225.948 21.6398 225.948 24.1237C223.716 24.1237 221.484 24.1237 219.184 24.1237C219.184 27.0871 219.184 30.0504 219.184 33.1036C221.918 33.1036 224.651 33.1036 227.468 33.1036C227.468 35.5144 227.468 37.9253 227.468 40.4092C222.001 40.4092 216.533 40.4092 210.9 40.4092C210.9 27.7271 210.9 15.0449 210.9 1.97852Z" fill="#FAFAFA"/>
</g>
<defs>
<clipPath id="clip0_355_6688">
<rect width="228" height="86.336" fill="white"/>
</clipPath>
</defs>
</svg>
