<svg width="81" height="84" viewBox="0 0 81 84" fill="none" xmlns="http://www.w3.org/2000/svg">
<path d="M37.7785 0.43312C37.964 0.432874 38.1494 0.432618 38.3348 0.432352C38.7212 0.431901 39.1076 0.431755 39.494 0.431801C39.8825 0.431807 40.2711 0.431284 40.6597 0.43024C43.0458 0.423938 45.422 0.452767 47.804 0.598103C47.9495 0.606745 47.9495 0.606745 48.0979 0.615561C48.6527 0.649071 49.2069 0.688098 49.761 0.731279C49.8427 0.737547 49.9245 0.743815 50.0087 0.750274C58.2751 1.38974 66.4903 2.82466 80.864 7.14273C80.8739 7.63673 80.8512 8.11169 80.783 8.60083C80.7743 8.66551 80.7657 8.73019 80.7568 8.79684C80.7282 9.00815 80.6988 9.21933 80.6693 9.4305C80.6539 9.54104 80.6539 9.54104 80.6383 9.65381C80.1917 12.8651 79.5614 16.0338 78.8675 19.2002C78.8552 19.2569 78.8429 19.3137 78.8302 19.3721C78.7449 19.7575 78.7449 19.7575 78.66 19.9276C78.1748 19.8263 77.7082 19.6984 77.2368 19.5456C77.0914 19.4992 76.946 19.4528 76.8006 19.4064C76.7244 19.3821 76.6483 19.3577 76.5699 19.3327C68.7693 16.8451 60.7237 15.2206 43.5195 13.7968C43.4602 13.7952 43.4009 13.7936 43.3399 13.792C35.3577 13.5857 27.3717 14.1658 15.602 16.2177C15.5087 16.2363 15.5087 16.2363 15.4136 16.2553C15.1083 16.3146 15.1083 16.3146 14.82 16.427C15.5725 19.3037 16.443 22.1366 17.404 24.9502C17.4221 25.0034 17.4402 25.0565 17.4588 25.1113C18.7106 28.7863 20.1821 32.3825 21.8151 35.9037C21.8894 36.0639 21.9635 36.2241 22.0376 36.3843C23.9207 40.4498 26.0159 44.4109 28.348 48.2369C28.4179 48.352 28.4179 48.352 28.4893 48.4693C29.1594 49.5705 29.8413 50.6622 30.552 51.7375C30.6006 51.8111 30.6492 51.8847 30.6993 51.9606C31.6168 53.3475 32.5523 54.7201 33.516 56.0753C33.5546 56.1296 33.5932 56.1839 33.6329 56.2399C34.2154 57.0586 34.8166 57.8616 35.4273 58.6594C35.647 58.9467 35.8641 59.2358 36.0794 59.5263C36.5399 60.1473 37.0217 60.7485 37.5119 61.3461C37.6571 61.5238 37.8002 61.7031 37.943 61.8827C38.4328 62.4969 38.9324 63.1022 39.4409 63.7009C39.7536 64.0701 40.0568 64.4465 40.356 64.8268C40.6402 64.7125 40.7771 64.5527 40.964 64.3131C41.2375 63.9689 41.5173 63.6326 41.8048 63.3C42.1117 62.9434 42.4125 62.5833 42.704 62.2138C42.825 62.0606 42.9467 61.9081 43.0691 61.756C43.5156 61.2014 43.9537 60.6412 44.3842 60.0741C44.6408 59.7363 44.9002 59.4009 45.1619 59.0671C45.6904 58.392 46.1972 57.7039 46.6947 57.0058C46.814 56.8391 46.9342 56.673 47.0547 56.5072C50.8386 51.3001 54.1542 45.7517 57.076 40.0181C57.1022 39.9667 57.1284 39.9153 57.1554 39.8624C58.1864 37.8391 59.1529 35.7925 60.04 33.7018C59.9883 33.6991 59.9366 33.6964 59.8833 33.6936C59.1161 33.6447 58.3616 33.5306 57.6016 33.4183C48.7591 32.1224 39.7855 31.8625 27.1407 32.848C27.0504 32.8573 27.0504 32.8573 26.9583 32.8669C26.8481 32.8784 26.7378 32.8901 26.6276 32.9021C26.3638 32.93 26.1053 32.9467 25.84 32.9408C25.4612 32.199 25.1098 31.4493 24.776 30.6863C24.7518 30.631 24.7276 30.5758 24.7026 30.5189C23.445 27.649 22.3087 24.7382 21.242 21.7921C21.2204 21.7326 21.1989 21.6731 21.1766 21.6119C21.1166 21.4461 21.0569 21.2802 20.9974 21.1143C20.9637 21.0206 20.9301 20.927 20.8954 20.8305C20.824 20.6125 20.824 20.6125 20.824 20.4603C21.3779 20.3405 21.9314 20.2564 22.4936 20.1874C22.58 20.1766 22.6664 20.1658 22.7554 20.1547C23.0362 20.1198 23.3171 20.0855 23.598 20.0513C23.6946 20.0394 23.7913 20.0276 23.8908 20.0154C26.6698 19.6767 29.4503 19.4189 32.245 19.255C32.444 19.2432 32.6428 19.2308 32.8417 19.2183C37.4691 18.9327 42.1896 18.9473 46.816 19.2427C46.8962 19.2477 46.9763 19.2527 47.0589 19.2578C55.2539 19.7685 63.3941 20.9884 75.8813 24.3557C75.953 24.377 76.0248 24.3984 76.0987 24.4204C76.2987 24.4801 76.4984 24.5406 76.698 24.6015C76.7575 24.6192 76.817 24.6369 76.8783 24.6552C77.0176 24.6983 77.1551 24.7476 77.292 24.798C77.4255 25.0653 77.2578 25.3578 77.1715 25.6304C77.1496 25.7008 77.1277 25.7713 77.1052 25.8439C77.032 26.0789 76.9578 26.3137 76.8835 26.5483C76.8453 26.6699 76.8453 26.6699 76.8062 26.7939C74.6272 33.7132 71.8849 40.3507 67.2942 49.4066C67.178 49.6176 67.0644 49.8297 66.9513 50.0422C66.3726 51.1281 65.7571 52.1889 65.1252 53.2444C64.9901 53.4709 64.8563 53.6981 64.7232 53.9257C64.119 54.9592 63.4914 55.9765 62.852 56.9885C62.8039 57.0649 62.7558 57.1413 62.7063 57.22C60.78 60.2776 58.7072 63.2615 56.4944 66.1184C56.343 66.3139 56.193 66.5104 56.0433 66.7072C55.6843 67.1781 55.3142 67.6391 54.9398 68.0977C54.6692 68.4295 54.4033 68.7646 54.1405 69.1027C53.7724 69.5751 53.3893 70.0332 53.0002 70.4883C52.8616 70.6508 52.724 70.8141 52.5863 70.9774C52.4113 71.1852 52.2357 71.3925 52.06 71.5997C52.0227 71.6438 51.9853 71.6879 51.9468 71.7333C51.4921 72.2693 51.0319 72.7981 50.5572 73.3165C50.4115 73.4765 50.2684 73.6382 50.1268 73.8019C49.8021 74.1758 49.4659 74.5391 49.1307 74.9035C49.0199 75.0244 48.9094 75.1457 48.7991 75.2671C48.4674 75.632 48.1339 75.9926 47.7816 76.3379C47.6551 76.4671 47.5383 76.6007 47.4213 76.7386C47.0685 77.1444 46.6883 77.5222 46.3081 77.9021C46.2302 77.9801 46.1523 78.0582 46.0745 78.1362C45.9121 78.2989 45.7497 78.4614 45.5872 78.6238C45.3804 78.8304 45.1739 79.0374 44.9676 79.2444C44.8071 79.4054 44.6465 79.5661 44.4858 79.7269C44.4096 79.803 44.3336 79.8793 44.2576 79.9556C43.8693 80.345 43.479 80.7269 43.0608 81.0842C42.9113 81.2131 42.773 81.3507 42.636 81.4928C42.4038 81.7284 42.1642 81.9475 41.9122 82.1616C41.7519 82.305 41.5986 82.4518 41.4455 82.6028C41.3953 82.6516 41.3451 82.7005 41.2934 82.7508C41.192 82.8497 41.0915 82.9495 40.9919 83.0502C40.6388 83.3919 40.6388 83.3919 40.3798 83.4078C40.1675 83.3008 40.0379 83.1799 39.8763 83.0053C39.6216 82.7328 39.3547 82.4867 39.0732 82.2428C38.8094 82.0117 38.5545 81.7713 38.2993 81.5308C38.2231 81.4595 38.2231 81.4595 38.1453 81.3867C37.9028 81.1587 37.6637 80.9287 37.4303 80.6914C37.2553 80.5145 37.0756 80.3485 36.8864 80.187C36.5315 79.8777 36.1991 79.5483 35.867 79.2148C35.8033 79.1511 35.7396 79.0875 35.674 79.0219C35.5403 78.888 35.4066 78.754 35.273 78.6199C35.0699 78.4161 34.8663 78.2126 34.6627 78.0093C34.5321 77.8784 34.4015 77.7476 34.271 77.6167C34.1807 77.5266 34.1807 77.5266 34.0886 77.4346C33.7708 77.115 33.4649 76.7896 33.172 76.4469C33.0166 76.268 32.8496 76.1028 32.68 75.9375C32.4171 75.677 32.1686 75.4116 31.9283 75.1304C31.703 74.8743 31.4693 74.6263 31.236 74.3774C30.9168 74.0365 30.6001 73.6949 30.2958 73.3405C30.1464 73.1684 29.9929 73.0002 29.8395 72.8316C29.5468 72.5069 29.2699 72.1719 28.9952 71.8319C28.7714 71.5601 28.5413 71.2944 28.31 71.029C27.908 70.5669 27.5167 70.0978 27.132 69.6211C27.0547 69.5262 26.9773 69.4312 26.8999 69.3363C26.4 68.7231 25.9058 68.1059 25.4199 67.4816C25.2992 67.3268 25.178 67.1724 25.0569 67.018C24.4611 66.257 23.8828 65.4847 23.313 64.704C23.1807 64.5233 23.0475 64.3432 22.914 64.1633C21.2981 61.9837 19.7785 59.7304 18.316 57.4451C18.2814 57.391 18.2467 57.3369 18.2111 57.2812C14.7156 51.8126 11.6275 46.0536 9.03738 40.1011C8.94835 39.8969 8.85865 39.693 8.76894 39.4891C5.8948 32.9536 3.67231 26.1383 0.0962986 8.52034C0.0823895 8.41066 0.0683061 8.301 0.0540751 8.19136C0.00213243 7.78684 -0.00563327 7.39732 9.06549e-06 6.99053C6.09397 4.39857 13.0297 3.11892 19.532 2.04401C19.6019 2.03245 19.6719 2.02089 19.7439 2.00898C23.8574 1.33226 28.0024 0.883549 32.1623 0.621884C32.2358 0.617247 32.3094 0.61261 32.3852 0.607832C34.1829 0.495965 35.9773 0.433698 37.7785 0.43312Z" fill="#067A3A"/>
</svg>
